HIERARCHY
ROOT Hips
{
  OFFSET -125.086 92.215 135.881
  CHANNELS 6 Xposition Yposition Zposition Zrotation Xrotation Yrotation
  JOINT LeftUpLeg
  {
    OFFSET 8.64259 1.95398 -2.38835
    CHANNELS 3 Zrotation Xrotation Yrotation
    JOINT LeftLeg
    {
      OFFSET 43.7702 0 0
      CHANNELS 3 Zrotation Xrotation Yrotation
      JOINT LeftFoot
      {
        OFFSET 40.6238 0 0
        CHANNELS 3 Zrotation Xrotation Yrotation
        JOINT LeftToeBase
        {
          OFFSET 12.7242 0 0
          CHANNELS 3 Zrotation Xrotation Yrotation
          End Site
          {
            OFFSET 0 0 0
          }
        }
      }
    }
  }
  JOINT RightUpLeg
  {
    OFFSET -8.2249 1.95398 -2.59336
    CHANNELS 3 Zrotation Xrotation Yrotation
    JOINT RightLeg
    {
      OFFSET 43.5653 0 0
      CHANNELS 3 Zrotation Xrotation Yrotation
      JOINT RightFoot
      {
        OFFSET 40.6238 0 0
        CHANNELS 3 Zrotation Xrotation Yrotation
        JOINT RightToeBase
        {
          OFFSET 12.7242 0 0
          CHANNELS 3 Zrotation Xrotation Yrotation
          End Site
          {
            OFFSET 0 0 0
          }
        }
      }
    }
  }
  JOINT Spine
  {
    OFFSET 0.165834 0.87714 6.61349
    CHANNELS 3 Zrotation Xrotation Yrotation
    JOINT Spine1
    {
      OFFSET 7.38963 1.71661e-005 0
      CHANNELS 3 Zrotation Xrotation Yrotation
      JOINT Spine2
      {
        OFFSET 11.9445 1.14441e-005 0
        CHANNELS 3 Zrotation Xrotation Yrotation
        JOINT Spine3
        {
          OFFSET 14.7254 4.19617e-005 0
          CHANNELS 3 Zrotation Xrotation Yrotation
          JOINT Spine4
          {
            OFFSET 10.9679 0 0
            CHANNELS 3 Zrotation Xrotation Yrotation
            JOINT RightShoulder
            {
              OFFSET 2.46616 -1.6653 3.69651
              CHANNELS 3 Zrotation Xrotation Yrotation
              JOINT RightArm
              {
                OFFSET 13.0012 0 0
                CHANNELS 3 Zrotation Xrotation Yrotation
                JOINT RightForeArm
                {
                  OFFSET 28.7848 1.52588e-005 0
                  CHANNELS 3 Zrotation Xrotation Yrotation
                  JOINT RightHand
                  {
                    OFFSET 26.5688 1.52588e-005 0
                    CHANNELS 3 Zrotation Xrotation Yrotation
                    End Site
                    {
                      OFFSET 0 0 0
                    }
                  }
                }
              }
            }
            JOINT LeftShoulder
            {
              OFFSET 2.38034 -1.29275 -3.7523
              CHANNELS 3 Zrotation Xrotation Yrotation
              JOINT LeftArm
              {
                OFFSET 16.3182 6.10352e-005 0
                CHANNELS 3 Zrotation Xrotation Yrotation
                JOINT LeftForeArm
                {
                  OFFSET 27.0901 0 0
                  CHANNELS 3 Zrotation Xrotation Yrotation
                  JOINT LeftHand
                  {
                    OFFSET 24.5451 1.52588e-005 0
                    CHANNELS 3 Zrotation Xrotation Yrotation
                    End Site
                    {
                      OFFSET 0 0 0
                    }
                  }
                }
              }
            }
            JOINT Neck
            {
              OFFSET 5.0226 -0.0266342 0
              CHANNELS 3 Zrotation Xrotation Yrotation
              JOINT Head
              {
                OFFSET 6.69363 2.86102e-005 0
                CHANNELS 3 Zrotation Xrotation Yrotation
                End Site
                {
                  OFFSET 0 0 0
                }
              }
            }
          }
        }
      }
    }
  }
}
MOTION
Frames:	17
Frame Time:	0.0416667
-4.65682 35.5642 -11.035 168.089 -69.0679 165.86 165.4 76.1312 113.792 -154.753 16.4871 2.88888 73.2868 9.40867 0.0443635 65.1726 -1.17016 9.47446 -154.788 68.2218 36.5541 -154.041 -26.7012 -3.35093 87.588 -14.2177 4.84514 54.4816 -3.82032 1.38886 0.323699 12.664 -90.5405 1.54643 0.439657 -1.04093 -10.1249 0.393413 -1.05927 -32.6582 0.732163 -0.86069 -12.6455 0.732159 -0.860694 101.047 -33.6252 -84.3346 19.2039 -20.6334 -52.4992 -48.1491 -16.2123 -77.8516 -4.86791 -0.473417 6.88739 -83.1974 -26.73 85.7312 -34.82 17.2254 -62.4931 47.5485 28.1697 -74.2115 -18.1269 0.908134 -11.5784 20.0402 -0.428222 20.5704 -0.34969 -7.46101 -19.5708 
-4.6917 35.5926 -11.1107 167.706 -69.1631 165.625 164.526 76.2416 114.658 -154.649 16.2155 2.86862 73.4483 9.57779 -0.0839843 65.3202 -1.22075 9.23145 -155.176 68.7836 36.8711 -153.974 -26.3993 -3.39577 87.0547 -14.0055 4.69295 54.6626 -3.75938 1.99887 0.330787 12.6922 -90.5553 1.49017 0.448418 -1.06916 -10.1812 0.400934 -1.08786 -32.7143 0.748994 -0.884981 -12.7017 0.749001 -0.884986 101.261 -33.4849 -83.9221 18.2165 -21.0384 -52.9492 -52.3048 -16.335 -79.8239 -5.96657 -0.674277 8.72429 -83.1753 -26.5298 85.742 -34.4031 17.2094 -62.6397 47.2405 27.6349 -74.4658 -18.5261 0.800511 -10.6456 18.9889 -0.83987 20.5348 0.791145 -7.85642 -19.6553 
-4.796 35.4552 -11.2378 167.748 -68.961 165.629 164.205 76.0933 114.883 -154.718 15.8187 2.85404 74.0296 9.81998 -0.630418 65.076 -1.0954 9.83768 -156.755 68.4945 38.3105 -154.152 -26.2198 -3.3809 88.9843 -15.0834 4.85635 52.8174 -3.62231 1.04095 0.319233 12.75 -90.5511 1.37441 0.427425 -1.06067 -10.2969 0.380327 -1.07845 -32.83 0.726425 -0.883196 -12.8174 0.726426 -0.883197 101.257 -32.655 -83.952 18.2469 -21.2496 -52.8749 -54.4989 -15.6702 -80.8083 -5.41111 -0.612383 8.81685 -83.0243 -25.4794 85.871 -34.2475 17.1346 -62.8132 46.8318 26.8878 -74.6462 -19.549 0.819117 -10.3776 17.3397 -1.08509 20.3468 2.38134 -7.99466 -19.2469 
-4.84389 35.2054 -11.4096 166.679 -68.2592 164.393 163.662 75.8447 114.849 -154.833 15.6938 2.78552 74.5156 9.94132 -1.15459 64.7179 -1.02203 10.2065 -158.428 68.9627 39.6254 -154.584 -27.4076 -3.45448 87.0961 -16.076 0.752012 56.7075 -4.00599 2.28245 0.243738 12.8485 -90.5541 1.17673 0.2765 -1.07009 -10.4946 0.229139 -1.08122 -33.0272 0.585301 -0.937538 -13.0145 0.585309 -0.937533 101.41 -31.7131 -83.6687 18.6529 -21.6058 -53.0801 -55.5368 -14.8229 -81.4698 -4.92373 -0.550471 8.7594 -82.6769 -24.7175 86.4767 -34.5635 17.429 -62.9621 47.1662 25.9546 -75.3477 -20.8391 0.862316 -10.2502 15.2987 -1.44185 20.902 4.27821 -8.49448 -19.7493 
-4.67374 35.0534 -11.5929 161.713 -67.8198 159.709 164.177 76.9215 112.16 -154.972 15.711 2.74261 74.4999 10.5473 0.624782 64.4684 -1.01307 10.2564 -158.982 67.8132 38.2478 -154.524 -26.6778 -3.45963 89.5734 -16.065 3.68803 54.384 -3.74271 1.87482 0.069177 12.8611 -90.645 1.14931 -0.106119 -1.25982 -10.5222 -0.161464 -1.25394 -33.0526 0.277384 -1.23348 -13.04 0.277379 -1.23349 101.501 -31.2666 -83.4954 18.8719 -21.9505 -53.1321 -56.1485 -13.6713 -82.0235 -4.82259 -0.523145 8.35418 -82.4701 -23.9645 86.7934 -35.3356 17.555 -62.4855 50.3557 24.3847 -78.1186 -24.978 1.3286 -11.4613 13.2109 -1.8585 20.9843 6.28445 -8.86368 -19.4245 
-5.02224 35.0575 -11.8271 167.273 -68.2058 164.811 166.414 75.9717 112.356 -154.839 15.8767 2.9111 75.3668 10.9125 0.45813 64.0043 -0.993602 10.3565 -151.805 66.6113 34.3175 -154.106 -24.5908 -3.15568 91.3537 -12.8764 11.3174 48.9153 -3.18626 -0.74006 0.285142 12.9292 -90.5387 1.01567 0.365677 -1.03609 -10.6556 0.319729 -1.05118 -33.1887 0.660151 -0.878316 -13.1761 0.660145 -0.878314 101.591 -30.9348 -83.3189 19.197 -22.531 -52.8023 -56.874 -12.2214 -82.6571 -6.05333 -0.664101 8.27029 -82.3485 -23.2536 86.9393 -36.2885 17.7637 -61.8506 49.2392 22.3287 -78.5204 -22.8007 0.87905 -9.76012 12.5342 -2.03122 21.5751 5.89986 -9.08559 -20.4576 
-5.14681 35.1225 -11.924 166.05 -68.5064 163.449 165.122 76.5818 113.313 -154.59 15.8552 2.92995 75.1477 10.7603 0.0535012 63.2799 -1.23949 9.08919 -150.441 65.529 32.9451 -153.729 -22.1412 -3.09859 93.9229 -11.1327 17.1187 45.6743 -2.74344 -2.11141 0.259368 12.9205 -90.5285 1.03304 0.318004 -1.01797 -10.6383 0.272898 -1.03098 -33.1712 0.609224 -0.875356 -13.1586 0.609234 -0.875347 101.669 -30.6286 -83.1642 19.5813 -22.7382 -52.8569 -56.6937 -11.0339 -83.2076 -4.86251 -0.550787 8.93873 -82.3624 -23.2341 86.9058 -36.739 17.3018 -61.1763 49.4448 20.5063 -79.8851 -23.5742 0.85583 -9.42635 10.9749 -2.49163 21.1365 7.60712 -9.43151 -20.2841 
-5.22728 35.2505 -11.9779 166.7 -68.9511 164.468 163.41 76.7375 115.861 -154.419 15.8154 2.97854 75.0762 10.6919 -0.0877541 63.5354 -1.31172 8.7144 -151.308 66.4887 34.4994 -153.451 -21.711 -3.14586 93.437 -11.2995 16.4974 46.1335 -2.71223 -0.243453 0.314475 12.9136 -90.5427 1.04722 0.422529 -1.04212 -10.6241 0.376254 -1.05971 -33.1573 0.716183 -0.866967 -13.1447 0.716181 -0.866984 101.778 -30.6422 -82.9401 19.4701 -23.0681 -53.2832 -56.2685 -10.7138 -83.1568 -5.38078 -0.599053 8.58158 -82.3027 -23.3979 87.063 -36.9524 16.7589 -60.3348 49.5207 18.9939 -81.1743 -23.8209 0.727885 -8.68809 10.7087 -2.59066 19.5357 8.62859 -9.0508 -18.1907 
-5.25782 35.3652 -12.0805 166.738 -69.1339 164.459 165.907 76.8427 113.659 -154.307 15.7435 3.06382 75.4118 11.0429 0.395653 63.4049 -1.22489 9.16601 -151.775 67.5692 35.2556 -153.437 -23.2247 -3.18553 91.7121 -12.3944 12.8216 49.1208 -3.13783 0.306202 0.307862 12.9185 -90.5161 1.03736 0.419478 -0.990232 -10.6339 0.375502 -1.00774 -33.1674 0.697673 -0.81841 -13.1547 0.697687 -0.818395 101.731 -30.259 -83.0409 19.446 -23.3386 -53.3318 -54.6366 -10.5682 -82.695 -7.34746 -0.765437 7.41418 -82.2173 -23.8793 87.3252 -36.664 16.4678 -60.0013 49.1503 18.0595 -81.7313 -24.0092 0.64827 -8.23462 12.0974 -2.1906 19.1899 7.86156 -8.64149 -17.7892 
-5.47021 35.5737 -12.2302 170.774 -69.5235 168.382 168.965 76.1142 112.612 -153.996 16.0296 3.20759 75.8484 11.472 1.15645 63.5872 -1.25854 8.99512 -153.139 69.2141 38.6242 -153.301 -22.9095 -3.23163 90.5465 -13.5477 9.78915 51.2216 -3.53618 -0.447573 0.502885 12.9178 -90.4786 1.0399 0.822795 -0.903478 -10.6311 0.782242 -0.938825 -33.1671 1.05628 -0.614424 -13.1544 1.05628 -0.614441 101.739 -30.7246 -83.02 18.9268 -23.0185 -52.833 -58.0931 -10.467 -83.8697 -6.58787 -0.829713 10.1683 -82.3127 -24.048 87.1453 -37.4393 16.4348 -59.7601 50.6347 18.0353 -82.7416 -25.1857 0.705292 -8.32328 13.1656 -2.16564 20.0169 6.88725 -8.9292 -18.6276 
-5.1364 36.4328 -12.3546 160.728 -69.8934 158.714 166.719 77.7848 110.941 -152.6 15.0948 3.08776 74.4653 10.9373 0.308233 63.9936 -1.17993 9.4061 -160.239 69.8038 41.9495 -152.31 -23.926 -3.56482 89.9717 -15.1246 6.49041 53.6318 -3.90789 -0.28988 0.210829 12.8047 -90.6433 1.26658 0.176159 -1.24424 -10.405 0.121228 -1.2508 -32.936 0.541945 -1.13381 -12.9233 0.541942 -1.13382 101.848 -31.757 -82.7875 17.9069 -22.7513 -53.5652 -57.3874 -10.5318 -83.468 -4.16525 -0.45865 8.86391 -82.253 -25.1834 87.4528 -37.4659 16.5696 -60.3142 52.5273 18.8786 -83.3649 -27.3964 0.800581 -8.37574 15.9146 -1.60524 19.7559 5.14092 -8.36942 -17.0866 
-5.32438 38.7092 -12.6253 159.683 -72.0436 157.89 171.154 77.5722 107.044 -149.529 14.4665 3.37123 73.7087 10.961 0.140891 64.8097 -1.08176 9.90895 -167.295 71.3112 49.7221 -149.331 -23.3909 -3.84074 88.8789 -15.5512 5.11625 54.0775 -4.03883 -0.778322 0.252355 12.6819 -90.6451 1.51055 0.257471 -1.25025 -10.161 0.2022 -1.26037 -32.6922 0.621302 -1.11509 -12.6796 0.621295 -1.1151 101.967 -34.4569 -82.5362 15.1243 -22.1954 -55.3556 -56.9213 -12.5829 -82.7792 -5.09743 -0.601875 9.47808 -82.3748 -27.7771 87.5791 -35.6325 16.9732 -61.098 49.6335 20.2183 -80.9403 -26.8192 0.935998 -9.10723 20.9708 -0.372078 21.0773 0.597263 -7.81861 -17.6262 
-5.53623 41.8278 -12.8559 156.49 -74.3206 154.612 176.635 76.4972 101.724 -145.182 12.7417 3.63728 73.6597 11.0231 -1.64515 64.0432 -1.11727 9.73337 -174.577 72.0411 57.1072 -145.107 -20.6163 -4.14901 87.8456 -14.1611 7.39597 53.8759 -4.05701 -1.17578 0.248026 12.5353 -90.5757 1.80326 0.273941 -1.11586 -9.86815 0.224559 -1.12684 -32.4004 0.596617 -0.981966 -12.3877 0.596615 -0.981978 102.066 -37.7531 -82.3396 12.7428 -20.9209 -57.2097 -54.199 -17.185 -80.6468 -7.55217 -0.946182 9.98888 -82.6649 -30.5572 87.3992 -34.8854 16.9924 -62.3073 48.2961 24.5358 -77.3631 -23.2451 0.788277 -9.13835 26.0149 0.651626 21.4549 -3.49335 -7.28559 -18.3486 
-5.69658 45.4046 -12.9004 151.793 -76.6691 149.926 -178.586 74.6695 97.222 -140.122 10.4375 3.86284 74.0536 11.1822 -3.68693 63.7856 -1.26506 8.96814 177.705 71.7687 64.6885 -140.061 -17.4161 -4.34466 87.2409 -13.1245 10.3933 52.9426 -3.89304 -1.14809 0.146132 12.327 -90.4892 2.21941 0.102122 -0.95277 -9.45189 0.0600939 -0.956357 -31.9846 0.383735 -0.878041 -11.972 0.383737 -0.878051 101.815 -39.2943 -82.7891 13.0583 -20.0688 -59.3131 -52.1609 -24.1393 -77.1865 -6.86475 -0.839394 9.71434 -83.3532 -33.3186 86.4836 -34.895 15.9306 -62.1257 47.0273 30.9445 -71.8682 -21.8888 0.963223 -10.494 32.3872 2.0721 20.6253 -8.44179 -6.0946 -16.3767 
-5.90545 49.2876 -12.8164 142.825 -78.4002 140.901 -175.612 72.6798 94.2361 -134.481 9.21521 4.01541 73.896 10.8451 -5.46127 62.9962 -1.34201 8.52028 169.876 70.2383 71.9284 -134.508 -16.5207 -4.39412 86.377 -12.9588 10.0412 54.3014 -4.02337 -0.376164 -0.0236061 12.0917 -90.3932 2.68915 -0.201227 -0.770618 -8.98201 -0.234947 -0.761031 -31.5153 0.0396704 -0.795462 -11.5026 0.0396663 -0.795475 102 -39.2082 -82.4541 19.497 -20.3897 -58.4514 -55.0163 -27.6383 -77.1135 0.922204 0.159742 9.13733 -84.1552 -34.7778 85.2207 -35.3748 14.8095 -61.8993 46.8574 38.566 -66.4748 -19.1221 0.882544 -10.9736 38.9626 3.03531 18.7393 -12.783 -5.04066 -14.8571 
-6.03202 53.4272 -12.6677 125.554 -79.5696 123.92 -175.122 71.1851 92.8788 -128.292 8.98661 4.00518 73.7967 10.8402 -6.07615 62.2392 -1.39351 8.19194 162.595 68.4247 77.9985 -128.402 -16.7158 -4.23837 86.0268 -13.1775 9.23111 54.0082 -4.04197 -0.882526 -0.253217 11.6951 -90.3496 3.48106 -0.645283 -0.685282 -8.18991 -0.674812 -0.656233 -30.7242 -0.409506 -0.847527 -10.7115 -0.409502 -0.847529 102.506 -39.2416 -81.5469 25.7818 -21.6998 -55.3902 -53.1771 -28.5551 -75.4971 -0.330996 -0.00323931 9.97705 -84.4243 -36.2332 84.9725 -36.239 14.1678 -60.9617 55.6433 46.5806 -70.2926 -18.111 0.678402 -9.92392 44.0493 3.46716 17.2638 -16.4001 -4.46867 -13.2799 
-6.28121 58.0314 -12.4731 113.911 -80.1204 111.71 -173.018 67.5794 90.2102 -121.045 8.44736 3.89685 73.8021 11.0423 -6.2003 61.6189 -1.33143 8.50128 160.271 65.3812 80.0412 -121.376 -17.5684 -3.72233 85.2047 -13.9545 6.91157 54.5818 -4.00677 0.0928847 -0.432658 11.3476 -90.2045 4.17677 -0.947211 -0.395076 -7.49389 -0.963685 -0.353011 -30.0306 -0.784684 -0.661491 -10.018 -0.784689 -0.661506 102.826 -40.2137 -80.9872 30.1154 -22.3159 -51.8468 -51.9224 -30.9601 -73.2507 -5.37388 -0.584316 8.2615 -84.3206 -36.6206 85.2198 -37.1029 13.5464 -58.2998 56.5567 50.2147 -69.6966 -14.9946 0.528855 -9.96564 43.5452 3.2292 17.1164 -15.3094 -4.7415 -12.4085 
